<svg width="9" height="6" viewBox="0 0 9 6" fill="none" xmlns="http://www.w3.org/2000/svg">
<path d="M5.75628 4.6172C5.40521 5.03849 5.22967 5.24913 5.0281 5.34354C4.75934 5.46942 4.44855 5.46942 4.17979 5.34354C3.97822 5.24913 3.80268 5.03849 3.45161 4.6172L1.65417 2.46027C1.07436 1.76451 0.784461 1.41662 0.747211 1.128C0.697544 0.743177 0.874973 0.364358 1.2024 0.156154C1.44797 4.93993e-07 1.90082 4.66565e-07 2.80651 4.11709e-07L6.40138 1.93974e-07C7.30707 1.39118e-07 7.75991 1.1169e-07 8.00549 0.156153C8.33291 0.364357 8.51034 0.743177 8.46068 1.128C8.42342 1.41662 8.13352 1.76451 7.55371 2.46028L5.75628 4.6172Z" fill="black"/>
</svg>
