<svg width="591" height="309" viewBox="0 0 591 309" fill="none" xmlns="http://www.w3.org/2000/svg">
<path d="M0 60C0 41.3624 0 32.0435 3.04482 24.6927C7.10458 14.8915 14.8915 7.10458 24.6927 3.04483C32.0435 7.71597e-06 41.3623 9.95991e-06 60 1.44478e-05L427.019 0.000102825C439.121 0.000105739 445.173 0.000107196 450.585 1.55476C457.801 3.62763 464.289 7.68967 469.305 13.2763C473.067 17.4662 475.71 22.9102 480.995 33.798L572.743 222.798C585.05 248.152 591.204 260.829 590.649 271.149C589.909 284.909 582.138 297.319 570.083 303.994C561.042 309 546.95 309 518.766 309H60C41.3623 309 32.0435 309 24.6927 305.955C14.8915 301.895 7.10458 294.108 3.04482 284.307C0 276.956 0 267.638 0 249V60Z" fill="white"/>
</svg>
