<svg width="794" height="309" viewBox="0 0 794 309" fill="none" xmlns="http://www.w3.org/2000/svg">
<path d="M0 60C0 41.3623 0 32.0435 3.04482 24.6927C7.10458 14.8915 14.8915 7.10458 24.6927 3.04482C32.0435 4.34732e-06 41.3623 5.6116e-06 60 8.14016e-06L717.26 9.73101e-05C748.355 0.000101529 763.903 0.000103638 773.275 5.49839C785.773 12.8294 793.328 26.3453 793.027 40.8309C792.802 51.6951 784.658 64.9392 768.371 91.4275L652.157 280.427C646.463 289.688 643.616 294.318 639.918 297.866C634.986 302.596 628.925 305.985 622.312 307.708C617.352 309 611.917 309 601.046 309H60C41.3623 309 32.0435 309 24.6927 305.955C14.8915 301.895 7.10458 294.108 3.04482 284.307C0 276.956 0 267.638 0 249V60Z" fill="white"/>
</svg>
