<svg width="1800" height="770" viewBox="0 0 1800 770" fill="none" xmlns="http://www.w3.org/2000/svg">
<mask id="mask0_2015_2984" style="mask-type:alpha" maskUnits="userSpaceOnUse" x="0" y="0" width="1800" height="770">
<path d="M1283 339C1301.64 339 1310.96 339 1318.31 342.045C1328.11 346.105 1335.9 353.892 1339.96 363.692C1343 371.043 1343 380.362 1343 399V710C1343 728.638 1343 737.957 1339.96 745.308C1335.9 755.109 1328.11 762.895 1318.31 766.955C1310.96 770 1301.64 770 1283 770H60C41.3623 770 32.0432 770 24.6924 766.955C14.8915 762.895 7.10467 755.109 3.04492 745.308C0.000103175 737.957 0 728.638 0 710V399C0 380.362 0.00010281 371.043 3.04492 363.692C7.10467 353.891 14.8915 346.105 24.6924 342.045C32.0432 339 41.3623 339 60 339H1283ZM1740 3.08652e-09C1758.64 2.20946e-06 1767.96 0.000102761 1775.31 3.04492C1785.11 7.10466 1792.9 14.8915 1796.96 24.6924C1800 32.0432 1800 41.3624 1800 60V249C1800 267.638 1800 276.957 1796.96 284.308C1792.9 294.109 1785.11 301.895 1775.31 305.955C1767.96 309 1758.64 309 1740 309H771.624C740.455 309 724.871 309 715.49 303.49C702.983 296.143 695.433 282.6 695.76 268.099C696.005 257.222 704.2 243.966 720.588 217.453L837.413 28.4531C843.114 19.2306 845.964 14.6193 849.66 11.0859C854.588 6.37488 860.639 3.00121 867.237 1.28613C872.186 -0.000157288 877.607 -1.28016e-06 888.449 3.08652e-09H1740Z" fill="#D9D9D9"/>
</mask>
<g mask="url(#mask0_2015_2984)">
<rect x="-86" y="-138" width="1917" height="963" fill="white"/>
</g>
</svg>
