<svg width="180" height="29" viewBox="0 0 180 29" fill="none" xmlns="http://www.w3.org/2000/svg">
<path d="M167.671 21.4868C166.39 21.4868 165.24 21.2418 164.223 20.7518C163.205 20.2493 162.401 19.5395 161.811 18.6223C161.22 17.6927 160.925 16.5808 160.925 15.2868C160.925 14.1812 161.195 13.2013 161.735 12.347C162.288 11.4927 163.117 10.7891 164.223 10.2364C165.328 9.68358 166.717 9.31296 168.388 9.12451C170.071 8.9235 172.037 8.9235 174.286 9.12451L174.343 12.9689C173.149 12.7553 172.069 12.6485 171.101 12.6485C170.146 12.6359 169.33 12.7176 168.651 12.8935C167.986 13.0568 167.47 13.3144 167.106 13.6661C166.742 14.0179 166.56 14.4513 166.56 14.9664C166.56 15.6323 166.811 16.1411 167.313 16.4929C167.829 16.8446 168.513 17.0205 169.368 17.0205C170.109 17.0205 170.775 16.8886 171.365 16.6248C171.968 16.361 172.446 15.9778 172.797 15.4752C173.162 14.9602 173.344 14.332 173.344 13.5908V9.19989C173.344 8.50891 173.199 7.89959 172.91 7.37193C172.621 6.84427 172.163 6.43597 171.535 6.14701C170.919 5.84549 170.096 5.69474 169.066 5.69474C168.073 5.69474 167.087 5.84549 166.107 6.14701C165.127 6.43597 164.248 6.87568 163.469 7.46616L161.886 3.22605C163.13 2.44713 164.462 1.8755 165.881 1.51116C167.301 1.13426 168.695 0.945816 170.065 0.945816C171.874 0.945816 173.463 1.23477 174.833 1.81268C176.214 2.39059 177.295 3.28259 178.074 4.48866C178.853 5.69474 179.242 7.24002 179.242 9.12451V20.9214H173.909V18.8862C173.294 19.7154 172.446 20.3561 171.365 20.8084C170.285 21.2606 169.053 21.4868 167.671 21.4868Z" fill="black"/>
<path d="M137.419 20.9219V1.7001H143.6V8.61618H150.968V1.7001H157.149V20.9219H150.968V13.5159H143.6V20.9219H137.419Z" fill="black"/>
<path d="M124.525 21.4867C122.477 21.4867 120.681 21.0721 119.136 20.2429C117.59 19.4012 116.384 18.2328 115.517 16.7378C114.663 15.2427 114.236 13.5027 114.236 11.5177C114.236 10.0604 114.481 8.72241 114.971 7.50377C115.473 6.28513 116.177 5.22982 117.081 4.33782C117.999 3.43327 119.066 2.73601 120.285 2.24604C121.516 1.75607 122.861 1.51109 124.318 1.51109C125.901 1.51109 127.314 1.79376 128.558 2.35911C129.802 2.91189 130.832 3.6971 131.649 4.71472C132.478 5.71978 133.056 6.90073 133.382 8.25757C133.721 9.60184 133.765 11.0717 133.514 12.6673H118.777C118.765 13.6598 118.997 14.5266 119.475 15.2679C119.965 16.0091 120.656 16.5933 121.548 17.0205C122.452 17.435 123.514 17.6423 124.732 17.6423C125.813 17.6423 126.849 17.4853 127.842 17.1712C128.834 16.8571 129.758 16.3923 130.612 15.7767L132.308 19.1499C131.718 19.6273 130.983 20.0419 130.103 20.3937C129.224 20.7455 128.294 21.0156 127.314 21.204C126.347 21.3925 125.417 21.4867 124.525 21.4867ZM119.06 9.2375H128.841C128.803 7.96861 128.382 6.97611 127.578 6.26001C126.774 5.53134 125.65 5.167 124.205 5.167C122.773 5.167 121.592 5.53134 120.662 6.26001C119.732 6.97611 119.198 7.96861 119.06 9.2375Z" fill="black"/>
<path d="M87.919 20.9219V2.07694H92.0649H92.178L100.357 14.1L98.2837 14.1377L106.029 2.07694H110.269V20.9219H105.954L106.01 7.57966L106.934 7.95655L100.602 17.3602H97.6053L90.953 7.93771L91.8576 7.56081L91.933 20.9219H87.919Z" fill="black"/>
<path d="M75.1263 21.4872C73.1665 21.4872 71.439 21.0789 69.944 20.2623C68.4489 19.4457 67.2806 18.3087 66.4388 16.8514C65.5971 15.3815 65.1762 13.6729 65.1762 11.7256C65.1762 10.3185 65.4149 9.0119 65.8923 7.80582C66.3823 6.59975 67.0607 5.55699 67.9276 4.67757C68.807 3.79814 69.8309 3.11344 70.9993 2.62347C72.1802 2.1335 73.4617 1.88852 74.8436 1.88852C76.3387 1.88852 77.6704 2.15235 78.8388 2.68C80.0197 3.20766 80.9934 3.9489 81.7597 4.90371C82.5387 5.84595 83.0977 6.9578 83.4369 8.23925C83.7761 9.50815 83.8452 10.8901 83.6442 12.3851H68.606C68.5683 13.6163 68.8196 14.6968 69.3598 15.6265C69.9 16.5436 70.6789 17.2597 71.6965 17.7748C72.7267 18.2899 73.9454 18.5474 75.3525 18.5474C76.3826 18.5474 77.3877 18.3841 78.3676 18.0575C79.3476 17.7308 80.2144 17.2471 80.9682 16.6064L82.4381 19.1882C81.8351 19.6781 81.119 20.099 80.2898 20.4508C79.4732 20.79 78.6189 21.0475 77.7269 21.2234C76.8349 21.3993 75.9681 21.4872 75.1263 21.4872ZM68.7944 9.69031H80.1768C80.1265 8.13247 79.6428 6.92011 78.7257 6.05325C77.8086 5.17382 76.4957 4.7341 74.7871 4.7341C73.1288 4.7341 71.7594 5.17382 70.6789 6.05325C69.5985 6.92011 68.9703 8.13247 68.7944 9.69031Z" fill="black"/>
<path d="M42.5232 28.8367V2.45387H45.708V5.22407C46.4743 4.24413 47.4354 3.44636 48.5913 2.83076C49.7596 2.2026 51.2295 1.88852 53.001 1.88852C54.8352 1.88852 56.4496 2.32195 57.8441 3.18882C59.2386 4.04312 60.3254 5.2115 61.1043 6.69397C61.8958 8.17644 62.2915 9.84107 62.2915 11.6879C62.2915 13.0321 62.0654 14.301 61.6131 15.4945C61.1734 16.6755 60.5389 17.7182 59.7098 18.6228C58.8806 19.5148 57.8944 20.2183 56.7511 20.7334C55.6204 21.236 54.3578 21.4872 52.9633 21.4872C51.4054 21.4872 50.0423 21.1983 48.8739 20.6204C47.7181 20.0299 46.7507 19.2572 45.9718 18.3024V28.8367H42.5232ZM52.3791 18.359C53.6228 18.359 54.7221 18.0889 55.6769 17.5486C56.6443 16.9959 57.3981 16.2232 57.9383 15.2307C58.4911 14.2257 58.7675 13.0447 58.7675 11.6879C58.7675 10.3185 58.4911 9.13753 57.9383 8.14503C57.3981 7.13997 56.6443 6.36733 55.6769 5.82711C54.7221 5.28688 53.6228 5.01677 52.3791 5.01677C51.1353 5.01677 50.0297 5.28688 49.0624 5.82711C48.1076 6.36733 47.3538 7.13997 46.801 8.14503C46.2482 9.13753 45.9718 10.3185 45.9718 11.6879C45.9718 13.0447 46.2482 14.2257 46.801 15.2307C47.3538 16.2232 48.1076 16.9959 49.0624 17.5486C50.0297 18.0889 51.1353 18.359 52.3791 18.359Z" fill="black"/>
<path d="M29.8868 21.4872C28.0023 21.4872 26.3377 21.0914 24.8929 20.3C23.4481 19.4959 22.3174 18.3778 21.5008 16.9456C20.6842 15.5133 20.2759 13.8487 20.2759 11.9517C20.2759 10.5697 20.5083 9.28825 20.9731 8.1073C21.438 6.92635 22.0913 5.90244 22.933 5.03558C23.7748 4.15615 24.7547 3.47773 25.8728 3.00033C27.0035 2.51036 28.2284 2.26537 29.5476 2.26537C30.9421 2.26537 32.1859 2.51664 33.2789 3.01917C34.3844 3.50914 35.3016 4.20012 36.0302 5.09211C36.7715 5.9841 37.3117 7.02686 37.6509 8.22037C37.9901 9.41388 38.0906 10.7079 37.9524 12.1024H22.6126C22.5373 13.5723 22.7948 14.8601 23.3853 15.9656C23.9758 17.0586 24.8489 17.9129 26.0047 18.5285C27.1606 19.1441 28.5425 19.4519 30.1506 19.4519C31.118 19.4519 32.0791 19.2823 33.0339 18.9431C34.0013 18.5914 34.8242 18.0951 35.5026 17.4544L36.7275 19.2258C36.1119 19.7409 35.4209 20.168 34.6545 20.5073C33.8882 20.8465 33.0967 21.0914 32.2801 21.2422C31.476 21.4055 30.6783 21.4872 29.8868 21.4872ZM22.688 10.1425H35.691C35.6156 8.29575 35.0629 6.86353 34.0327 5.84591C33.0025 4.81572 31.5074 4.30063 29.5476 4.30063C27.6505 4.30063 26.0864 4.81572 24.8552 5.84591C23.624 6.86353 22.9016 8.29575 22.688 10.1425Z" fill="black"/>
<path d="M0.0350952 20.9218V2.83064H15.5633V20.9218H13.4527V4.79051H2.14573V20.9218H0.0350952Z" fill="black"/>
</svg>
