<svg width="40" height="40" viewBox="0 0 40 40" fill="none" xmlns="http://www.w3.org/2000/svg">
<path d="M21.25 0C27.0739 0 29.9861 -0.000164944 32.2832 0.951172C35.3461 2.21985 37.7802 4.65395 39.0488 7.7168C40.0002 10.0139 40 12.9261 40 18.75V21.25C40 27.0739 40.0002 29.9861 39.0488 32.2832C37.7802 35.3461 35.3461 37.7802 32.2832 39.0488C29.9861 40.0002 27.0739 40 21.25 40H18.75C12.9261 40 10.0139 40.0002 7.7168 39.0488C4.65395 37.7802 2.21985 35.3461 0.951172 32.2832C-0.000164944 29.9861 0 27.0739 0 21.25V18.75C0 12.9261 -0.000164944 10.0139 0.951172 7.7168C2.21985 4.65395 4.65395 2.21985 7.7168 0.951172C10.0139 -0.000164944 12.9261 0 18.75 0H21.25ZM26.2227 16.6377C25.1963 16.6266 24.1921 16.9399 23.3545 17.5332C22.517 18.1265 21.8887 18.9696 21.5586 19.9414C21.3138 20.6326 21.1907 21.3614 21.1953 22.0947C21.185 22.8407 21.3042 23.5826 21.5469 24.2881C21.7633 24.9189 22.0988 25.5023 22.5361 26.0059C22.9754 26.4866 23.5151 26.8658 24.1162 27.1162C24.7804 27.3874 25.4926 27.5221 26.21 27.5127C27.2151 27.5439 28.2051 27.2621 29.043 26.7061C29.9159 26.0519 30.5327 25.113 30.7852 24.0518H28.415C28.284 24.4238 28.0329 24.7436 27.7012 24.959C27.2939 25.2541 26.8007 25.4072 26.2979 25.3945C25.9805 25.4145 25.6619 25.3694 25.3623 25.2627C25.0629 25.156 24.7879 24.9904 24.5547 24.7744C24.0927 24.2126 23.8671 23.4936 23.9248 22.7695H30.9814C31.0346 21.9979 30.9717 21.2231 30.7939 20.4707C30.6321 19.7701 30.3389 19.1059 29.9297 18.5146C29.5291 17.9509 29.0063 17.4851 28.4004 17.1533C27.7301 16.7992 26.9806 16.622 26.2227 16.6377ZM9 13.001V27.2441H15.5586C16.1558 27.2461 16.7507 27.1663 17.3262 27.0068C17.8814 26.857 18.4046 26.6067 18.8691 26.2676C19.3211 25.9254 19.6857 25.481 19.9346 24.9717C20.2042 24.3885 20.3368 23.7517 20.3223 23.1094C20.347 22.3037 20.1342 21.5079 19.709 20.8232C19.2663 20.1769 18.607 19.7096 17.8506 19.5059C18.4077 19.244 18.884 18.8364 19.2285 18.3262C19.5565 17.7857 19.718 17.1601 19.6924 16.5283C19.707 15.9537 19.6008 15.3813 19.3799 14.8506C19.1874 14.4189 18.8841 14.0453 18.501 13.7676C18.0871 13.4877 17.6239 13.289 17.1357 13.1826C16.5561 13.0513 15.9624 12.9902 15.3682 13.001H9ZM15.2158 20.9043C15.7721 20.8735 16.3217 21.0371 16.7705 21.3672C16.982 21.5669 17.1451 21.8125 17.2471 22.085C17.3489 22.3572 17.3877 22.6491 17.3594 22.9385C17.375 23.2556 17.3137 23.5728 17.1836 23.8633C17.0708 24.0906 16.9033 24.2868 16.6943 24.4316C16.4822 24.5772 16.2435 24.6801 15.9922 24.7354C15.7172 24.7995 15.4346 24.8298 15.1523 24.8262H11.9707V20.9043H15.2158ZM26.1357 18.7891C26.4142 18.7698 26.6937 18.8104 26.9551 18.9082C27.2166 19.0061 27.454 19.159 27.6514 19.3564L27.6533 19.3574C28.0205 19.8279 28.2371 20.3986 28.2754 20.9941H23.9043C23.9199 20.7661 23.9616 20.5402 24.0293 20.3213C24.1034 20.0585 24.2268 19.8116 24.3926 19.5947C24.5786 19.3628 24.8088 19.1696 25.0693 19.0264C25.3982 18.8565 25.7659 18.7747 26.1357 18.7891ZM14.7734 15.4473C15.0301 15.4425 15.2871 15.4644 15.5391 15.5137C15.7712 15.5513 15.9931 15.6367 16.1904 15.7646C16.3852 15.8809 16.5429 16.0511 16.6445 16.2539C16.7635 16.509 16.8195 16.7891 16.8076 17.0703C16.8507 17.5588 16.6596 18.0398 16.2939 18.3652C15.9166 18.6413 15.4565 18.7818 14.9893 18.7627V18.7754H11.9707V15.4473H14.7734ZM23.3408 15.3525H28.8184V13.9531H23.3408V15.3525Z" fill="black"/>
</svg>
