<svg width="40" height="40" viewBox="0 0 40 40" fill="none" xmlns="http://www.w3.org/2000/svg">
<path d="M21.25 0C27.0739 0 29.9861 -0.000164944 32.2832 0.951172C35.3461 2.21985 37.7802 4.65395 39.0488 7.7168C40.0002 10.0139 40 12.9261 40 18.75V21.25C40 27.0739 40.0002 29.9861 39.0488 32.2832C37.7802 35.3461 35.3461 37.7802 32.2832 39.0488C29.9861 40.0002 27.0739 40 21.25 40H18.75C12.9261 40 10.0139 40.0002 7.7168 39.0488C4.65395 37.7802 2.21985 35.3461 0.951172 32.2832C-0.000164944 29.9861 0 27.0739 0 21.25V18.75C0 12.9261 -0.000164944 10.0139 0.951172 7.7168C2.21985 4.65395 4.65395 2.21985 7.7168 0.951172C10.0139 -0.000164944 12.9261 0 18.75 0H21.25ZM29.5693 14.3779C30.0547 11.4311 29.0813 11.1762 25.9092 12.5068C24.6986 13.0158 15.939 16.6887 9.16992 19.7012C7.48186 20.4526 7.06942 21.2341 8.80762 21.8379C9.25906 21.9948 10.4185 22.4061 11.6055 22.751C13.1767 23.2076 14.0525 22.921 14.9639 22.2949C15.5675 21.88 20.3069 18.6967 23.7256 16.4033C24.1091 16.1456 24.5267 16.6736 24.1943 16.9951C21.6579 19.4428 18.4019 22.5871 17.9053 23.0791C16.5098 24.4603 17.6228 25.1621 18.4297 25.7451C19.3136 26.3848 23.3865 29.1095 24.1934 29.6484C25.8712 30.7681 26.9384 30.4612 27.4141 27.873C28.2156 23.5085 29.2208 16.4962 29.5693 14.3779Z" fill="black"/>
</svg>
