<svg width="40" height="40" viewBox="0 0 40 40" fill="none" xmlns="http://www.w3.org/2000/svg">
<path d="M21.25 0C27.0739 0 29.9861 -0.000164944 32.2832 0.951172C35.3461 2.21985 37.7802 4.65395 39.0488 7.7168C40.0002 10.0139 40 12.9261 40 18.75V21.25C40 27.0739 40.0002 29.9861 39.0488 32.2832C37.7802 35.3461 35.3461 37.7802 32.2832 39.0488C29.9861 40.0002 27.0739 40 21.25 40H18.75C12.9261 40 10.0139 40.0002 7.7168 39.0488C4.65395 37.7802 2.21985 35.3461 0.951172 32.2832C-0.000164944 29.9861 0 27.0739 0 21.25V18.75C0 12.9261 -0.000164944 10.0139 0.951172 7.7168C2.21985 4.65395 4.65395 2.21985 7.7168 0.951172C10.0139 -0.000164944 12.9261 0 18.75 0H21.25ZM9 13C9.17865 21.5746 13.4659 26.7275 20.9824 26.7275H21.4082V21.8223C24.1702 22.0971 26.2594 24.1167 27.0977 26.7275H31C29.9282 22.8251 27.1114 20.6673 25.3525 19.8428C27.1114 18.8258 29.5849 16.3526 30.1758 13H26.6299C25.8603 15.7208 23.5793 18.1941 21.4082 18.4277V13H17.8633V22.5088C15.6647 21.9591 12.8893 19.2935 12.7656 13H9Z" fill="black"/>
</svg>
