<svg width="1281" height="309" viewBox="0 0 1281 309" fill="none" xmlns="http://www.w3.org/2000/svg">
<mask id="mask0_139_1466" style="mask-type:alpha" maskUnits="userSpaceOnUse" x="0" y="0" width="1281" height="309">
<path d="M1221 3.77519e-09C1239.64 1.60149e-06 1248.96 0.000102929 1256.31 3.04492C1266.11 7.10465 1273.9 14.8915 1277.96 24.6924C1281 32.0432 1281 41.3624 1281 60V249C1281 267.638 1281 276.957 1277.96 284.308C1273.9 294.109 1266.11 301.895 1256.31 305.955C1248.96 309 1239.64 309 1221 309H165.352C153.315 309 147.297 309 141.908 307.46C134.723 305.406 128.257 301.38 123.243 295.84C119.483 291.684 116.826 286.284 111.513 275.483L18.542 86.4834C6.03906 61.0663 -0.212338 48.3575 0.303712 38.0078C0.991971 24.2081 8.75314 11.74 20.832 5.03125C29.8912 -0.000262275 44.0545 -2.4245e-06 72.3809 3.77519e-09H1221Z" fill="#D9D9D9"/>
</mask>
<g mask="url(#mask0_139_1466)">
<g style="mix-blend-mode:color">
<rect x="-519" y="-25" width="1860" height="821" fill="url(#paint0_linear_139_1466)"/>
</g>
</g>
<defs>
<linearGradient id="paint0_linear_139_1466" x1="1341" y1="-25" x2="-511.805" y2="811.928" gradientUnits="userSpaceOnUse">
<stop stop-color="#379E98"/>
<stop offset="1" stop-color="#376D87"/>
</linearGradient>
</defs>
</svg>
