<svg width="516" height="233" viewBox="0 0 516 233" fill="none" xmlns="http://www.w3.org/2000/svg">
<path d="M0 60C0 41.3623 0 32.0435 3.04482 24.6927C7.10458 14.8915 14.8915 7.10458 24.6927 3.04482C32.0435 5.23849e-06 41.3623 6.76194e-06 60 9.80884e-06L456 7.45472e-05C474.638 7.75941e-05 483.957 7.91175e-05 491.307 3.0449C501.108 7.10466 508.895 14.8916 512.955 24.6927C516 32.0436 516 41.3624 516 60.0001V128.533C516 145.607 516 154.144 513.314 161.099C509.733 170.372 502.827 177.98 493.942 182.439C487.279 185.783 478.781 186.606 461.787 188.253L65.7868 226.625C45.554 228.586 35.4375 229.566 27.4078 226.903C16.7015 223.352 7.99218 215.446 3.42522 205.132C0 197.396 0 187.233 0 166.905V60Z" fill="white"/>
</svg>
