<svg width="516" height="396" viewBox="0 0 516 396" fill="none" xmlns="http://www.w3.org/2000/svg">
<mask id="mask0_394_3521" style="mask-type:alpha" maskUnits="userSpaceOnUse" x="0" y="4" width="516" height="392">
<path d="M0 104.467C0 87.3928 0 78.8557 2.68597 71.9007C6.26726 62.6275 13.1732 55.02 22.0578 50.561C28.7213 47.2168 37.2186 46.3934 54.2132 44.7467L450.213 6.37468C470.446 4.41413 480.562 3.43386 488.592 6.09705C499.298 9.64798 508.008 17.5542 512.575 27.8681C516 35.6035 516 45.7673 516 66.095V336C516 354.638 516 363.956 512.955 371.307C508.895 381.108 501.108 388.895 491.307 392.955C483.956 396 474.638 396 456 396H60C41.3623 396 32.0435 396 24.6927 392.955C14.8915 388.895 7.10458 381.108 3.04482 371.307C0 363.956 0 354.638 0 336V104.467Z" fill="#00FFF0"/>
</mask>
<g mask="url(#mask0_394_3521)">
<g style="mix-blend-mode:color">
<rect y="-20" width="516" height="416" fill="#00FFF0"/>
</g>
</g>
</svg>
