<?xml version="1.0" encoding="utf-8"?><svg viewBox="0 0 1800 770" xmlns="http://www.w3.org/2000/svg" xmlns:xlink="http://www.w3.org/1999/xlink"><style>:root>svg{display:none}:root>svg:target{display:block}</style><svg viewBox="0 0 9 6" id="arr-down" xmlns="http://www.w3.org/2000/svg"><path d="M5.756 4.617c-.35.421-.526.632-.728.727a1 1 0 0 1-.848 0c-.202-.095-.377-.306-.728-.727L1.654 2.46c-.58-.695-.87-1.043-.907-1.332a1 1 0 0 1 .455-.972C1.448 0 1.901 0 2.807 0H6.4c.906 0 1.359 0 1.604.156a1 1 0 0 1 .456.972c-.038.289-.327.637-.907 1.332L5.756 4.617Z"/></svg><svg viewBox="0 0 11 20" id="arr-right" xmlns="http://www.w3.org/2000/svg"><path d="m1.367 1.3 7.007 6.96a2.449 2.449 0 0 1 0 3.48L1.367 18.7"/></svg><svg viewBox="0 0 1800 770" id="hero-mask" xmlns="http://www.w3.org/2000/svg"><mask id="ca" maskUnits="userSpaceOnUse" x="0" y="0" width="1800" height="770"><path d="M1283 339c18.64 0 27.96 0 35.31 3.045a40.011 40.011 0 0 1 21.65 21.647c3.04 7.351 3.04 16.67 3.04 35.308v311c0 18.638 0 27.957-3.04 35.308a40.008 40.008 0 0 1-21.65 21.647C1310.96 770 1301.64 770 1283 770H60c-18.638 0-27.957 0-35.308-3.045a40 40 0 0 1-21.647-21.647C0 737.957 0 728.638 0 710V399c0-18.638 0-27.957 3.045-35.308a40 40 0 0 1 21.647-21.647C32.043 339 41.362 339 60 339h1223ZM1740 0c18.64 0 27.96 0 35.31 3.045a40.008 40.008 0 0 1 21.65 21.647C1800 32.043 1800 41.362 1800 60v189c0 18.638 0 27.957-3.04 35.308a40.008 40.008 0 0 1-21.65 21.647C1767.96 309 1758.64 309 1740 309H771.624c-31.169 0-46.753 0-56.134-5.51a40.001 40.001 0 0 1-19.73-35.391c.245-10.877 8.44-24.133 24.828-50.646l116.825-189c5.701-9.222 8.551-13.834 12.247-17.367a40.001 40.001 0 0 1 17.577-9.8C872.186 0 877.607 0 888.449 0H1740Z"/></mask><g mask="url(#ca)"><path d="M-86-138h1917v963H-86z"/></g></svg><svg viewBox="0 0 502.664 502.664" xml:space="preserve" id="icon" xmlns="http://www.w3.org/2000/svg"><path d="M153.821 358.226 0 274.337v-46.463l153.821-83.414v54.574L46.636 250.523l107.185 53.431v54.272zm26.273 29.358L282.103 115.08h32.227L212.084 387.584h-31.99zm168.749-29.358v-54.272l107.164-52.999-107.164-52.59v-53.927l153.821 83.522v46.183l-153.821 84.083z"/></svg><svg viewBox="0 0 180 29" id="logo" xmlns="http://www.w3.org/2000/svg"><path d="M167.671 21.487c-1.281 0-2.431-.245-3.448-.735-1.018-.503-1.822-1.212-2.412-2.13-.591-.93-.886-2.041-.886-3.335 0-1.106.27-2.086.81-2.94.553-.854 1.382-1.558 2.488-2.11 1.105-.553 2.494-.924 4.165-1.112 1.683-.201 3.649-.201 5.898 0l.057 3.844c-1.194-.214-2.274-.32-3.242-.32-.955-.013-1.771.069-2.45.245-.665.163-1.181.42-1.545.772a1.737 1.737 0 0 0-.546 1.3c0 .666.251 1.175.753 1.527.516.352 1.2.527 2.055.527.741 0 1.407-.131 1.997-.395a3.331 3.331 0 0 0 1.432-1.15c.365-.515.547-1.143.547-1.884V9.2c0-.691-.145-1.3-.434-1.828-.289-.528-.747-.936-1.375-1.225-.616-.302-1.439-.452-2.469-.452-.993 0-1.979.15-2.959.452a8.13 8.13 0 0 0-2.638 1.32l-1.583-4.24a14.085 14.085 0 0 1 3.995-1.716 16.262 16.262 0 0 1 4.184-.565c1.809 0 3.398.289 4.768.867 1.381.578 2.462 1.47 3.241 2.676.779 1.206 1.168 2.751 1.168 4.636V20.92h-5.333v-2.035c-.615.83-1.463 1.47-2.544 1.922-1.08.453-2.312.679-3.694.679Zm-30.252-.565V1.7h6.181v6.916h7.368V1.7h6.181v19.222h-6.181v-7.406H143.6v7.406h-6.181Zm-12.894.565c-2.048 0-3.844-.415-5.389-1.244-1.546-.842-2.752-2.01-3.619-3.505-.854-1.495-1.281-3.235-1.281-5.22 0-1.458.245-2.796.735-4.014a9.453 9.453 0 0 1 2.11-3.166 9.633 9.633 0 0 1 3.204-2.092c1.231-.49 2.576-.735 4.033-.735 1.583 0 2.996.283 4.24.848 1.244.553 2.274 1.338 3.091 2.356.829 1.005 1.407 2.186 1.733 3.543.339 1.344.383 2.814.132 4.41h-14.737c-.012.992.22 1.859.698 2.6.49.741 1.181 1.325 2.073 1.752.904.415 1.966.622 3.184.622a10.28 10.28 0 0 0 3.11-.47 9.737 9.737 0 0 0 2.77-1.395l1.696 3.373c-.59.477-1.325.892-2.205 1.244-.879.352-1.809.622-2.789.81a14.58 14.58 0 0 1-2.789.283Zm-5.465-12.25h9.781c-.038-1.268-.459-2.26-1.263-2.977-.804-.729-1.928-1.093-3.373-1.093-1.432 0-2.613.364-3.543 1.093-.93.716-1.464 1.709-1.602 2.978ZM87.919 20.922V2.077h4.259l8.179 12.023-2.073.038 7.745-12.061h4.24v18.845h-4.315l.056-13.342.924.377-6.332 9.403h-2.997l-6.652-9.422.905-.377.075 13.36h-4.014Zm-12.793.565c-1.96 0-3.687-.408-5.182-1.225a8.888 8.888 0 0 1-3.505-3.41c-.842-1.47-1.263-3.18-1.263-5.126 0-1.408.239-2.714.716-3.92a9.488 9.488 0 0 1 2.036-3.128 9.487 9.487 0 0 1 3.071-2.055c1.181-.49 2.463-.734 3.845-.734 1.495 0 2.826.263 3.995.791 1.18.528 2.154 1.269 2.92 2.224.78.942 1.339 2.054 1.678 3.335.34 1.27.408 2.651.207 4.146H68.606c-.038 1.231.214 2.312.754 3.242.54.917 1.319 1.633 2.337 2.148 1.03.515 2.248.772 3.656.772 1.03 0 2.035-.163 3.015-.49a7.761 7.761 0 0 0 2.6-1.45l1.47 2.581c-.603.49-1.319.911-2.148 1.263-.817.339-1.671.596-2.563.772a13.43 13.43 0 0 1-2.6.264ZM68.794 9.69h11.383c-.05-1.558-.534-2.77-1.451-3.637-.917-.88-2.23-1.319-3.939-1.319-1.658 0-3.028.44-4.108 1.32-1.08.866-1.709 2.078-1.885 3.636ZM42.523 28.837V2.454h3.185v2.77a8.942 8.942 0 0 1 2.883-2.393c1.169-.628 2.639-.942 4.41-.942 1.834 0 3.449.433 4.843 1.3 1.395.854 2.481 2.022 3.26 3.505.792 1.482 1.188 3.147 1.188 4.994 0 1.344-.227 2.613-.679 3.806a9.472 9.472 0 0 1-1.903 3.129 9.09 9.09 0 0 1-2.959 2.11c-1.13.503-2.393.754-3.788.754-1.558 0-2.92-.289-4.09-.867a8.941 8.941 0 0 1-2.901-2.318v10.535h-3.449Zm9.856-10.478c1.244 0 2.343-.27 3.298-.81a5.818 5.818 0 0 0 2.261-2.318c.553-1.005.83-2.186.83-3.543 0-1.37-.277-2.55-.83-3.543a5.663 5.663 0 0 0-2.261-2.318c-.955-.54-2.054-.81-3.298-.81-1.244 0-2.35.27-3.317.81-.954.54-1.708 1.313-2.261 2.318-.553.993-.83 2.174-.83 3.543 0 1.357.277 2.538.83 3.543a5.987 5.987 0 0 0 2.261 2.318c.968.54 2.073.81 3.317.81Zm-22.492 3.128c-1.885 0-3.55-.396-4.994-1.187a8.706 8.706 0 0 1-3.392-3.354c-.817-1.433-1.225-3.097-1.225-4.994 0-1.382.232-2.664.697-3.845a9.185 9.185 0 0 1 1.96-3.071A8.827 8.827 0 0 1 25.873 3c1.13-.49 2.355-.735 3.675-.735 1.394 0 2.638.252 3.73.754 1.106.49 2.024 1.181 2.752 2.073.742.892 1.282 1.935 1.62 3.128.34 1.194.44 2.488.302 3.882h-15.34c-.075 1.47.183 2.758.773 3.864.59 1.093 1.464 1.947 2.62 2.563 1.156.615 2.538.923 4.146.923a8.56 8.56 0 0 0 2.883-.509c.967-.352 1.79-.848 2.469-1.489l1.224 1.772a8.694 8.694 0 0 1-2.072 1.281c-.767.34-1.558.584-2.375.735a12 12 0 0 1-2.393.245Zm-7.199-11.344h13.003c-.075-1.847-.628-3.28-1.658-4.297-1.03-1.03-2.526-1.545-4.485-1.545-1.897 0-3.462.515-4.693 1.545-1.231 1.018-1.953 2.45-2.167 4.296ZM.035 20.922V2.83h15.528v18.09h-2.11V4.792H2.146v16.13H.036Z"/></svg><svg viewBox="0 0 794 309" id="title-mask" xmlns="http://www.w3.org/2000/svg"><path d="M0 60c0-18.638 0-27.956 3.045-35.307A40 40 0 0 1 24.693 3.045C32.043 0 41.363 0 60 0h657.26c31.095 0 46.643 0 56.015 5.498a39.998 39.998 0 0 1 19.752 35.333c-.225 10.864-8.369 24.108-24.656 50.596l-116.214 189c-5.694 9.261-8.541 13.891-12.239 17.439a40.011 40.011 0 0 1-17.606 9.842C617.352 309 611.917 309 601.046 309H60c-18.638 0-27.956 0-35.307-3.045a40.001 40.001 0 0 1-21.648-21.648C0 276.956 0 267.638 0 249V60Z"/></svg></svg>