<svg width="315" height="255" viewBox="0 0 315 255" fill="none" xmlns="http://www.w3.org/2000/svg">
<path d="M96.6025 136.688C111.491 136.688 118.936 136.688 124.32 139.271C131.499 142.715 136.725 149.232 138.53 156.987C139.884 162.803 138.27 170.07 135.04 184.604L126.29 223.979C124.12 233.746 123.034 238.629 120.667 242.432C117.511 247.503 112.721 251.345 107.087 253.326C102.861 254.811 97.8577 254.812 87.8525 254.812H39.377C27.1461 254.812 21.03 254.812 16.2061 252.814C9.77418 250.15 4.66418 245.039 2 238.607C0.00199304 233.783 0.00195312 227.668 0.00195312 215.437V176.062C0.00195313 163.832 0.0018864 157.716 2 152.892C4.66418 146.46 9.7743 141.35 16.2061 138.686C21.03 136.688 27.1461 136.688 39.377 136.688H96.6025ZM275.624 136.687C287.855 136.687 293.971 136.687 298.795 138.685C305.227 141.349 310.337 146.46 313.001 152.892C314.999 157.716 314.999 163.832 314.999 176.062V215.436C314.999 227.667 314.999 233.783 313.001 238.607C310.337 245.039 305.227 250.149 298.795 252.813C293.971 254.811 287.855 254.811 275.624 254.811H189.523C174.635 254.811 167.19 254.811 161.807 252.228C154.628 248.784 149.401 242.267 147.596 234.512C146.242 228.696 147.857 221.429 151.087 206.895L159.836 167.52C162.006 157.753 163.092 152.87 165.459 149.067C168.615 143.996 173.406 140.153 179.04 138.172C183.266 136.687 188.269 136.687 198.273 136.687H275.624ZM275.622 0.188049C287.853 0.18805 293.968 0.188015 298.792 2.1861C305.224 4.85023 310.334 9.9604 312.998 16.3922C314.996 21.2161 314.996 27.3322 314.996 39.563V78.9371C314.996 91.1678 314.996 97.2831 312.998 102.107C310.334 108.539 305.224 113.65 298.792 116.314C293.968 118.312 287.853 118.312 275.622 118.312H39.375C27.1441 118.312 21.028 118.312 16.2041 116.314C9.77222 113.65 4.66222 108.539 1.99805 102.107C4.18809e-05 97.2831 0 91.1676 0 78.9371V39.563C0 27.3322 -9.32417e-05 21.2161 1.99805 16.3922C4.66223 9.9604 9.77235 4.85028 16.2041 2.1861C21.028 0.187956 27.1442 0.188048 39.375 0.188049H275.622Z" fill="white"/>
</svg>
