<svg width="40" height="40" viewBox="0 0 40 40" fill="none" xmlns="http://www.w3.org/2000/svg">
<path d="M21.25 0C27.0739 0 29.9861 -0.000164944 32.2832 0.951172C35.3461 2.21985 37.7802 4.65395 39.0488 7.7168C40.0002 10.0139 40 12.9261 40 18.75V21.25C40 27.0739 40.0002 29.9861 39.0488 32.2832C37.7802 35.3461 35.3461 37.7802 32.2832 39.0488C29.9861 40.0002 27.0739 40 21.25 40H18.75C12.9261 40 10.0139 40.0002 7.7168 39.0488C4.65395 37.7802 2.21985 35.3461 0.951172 32.2832C-0.000164944 29.9861 0 27.0739 0 21.25V18.75C0 12.9261 -0.000164944 10.0139 0.951172 7.7168C2.21985 4.65395 4.65395 2.21985 7.7168 0.951172C10.0139 -0.000164944 12.9261 0 18.75 0H21.25ZM19.9971 10C14.4841 10 10 14.4854 10 20C10 22.1867 10.7053 24.2158 11.9043 25.8613L10.6582 29.5771L14.501 28.3486C16.082 29.3949 17.969 30 20.002 30C25.515 30 30 25.5147 30 20C30 14.4854 25.515 10 20.002 10H19.9971ZM16.2354 14.5732C16.8611 14.5732 16.9991 14.586 17.2051 15.0801C17.4462 15.6625 18.0345 17.0962 18.1045 17.2432C18.3933 17.8462 17.8097 18.1995 17.3867 18.7246C17.2518 18.8826 17.0988 19.0538 17.2695 19.3477C17.4395 19.6357 18.0277 20.5941 18.8916 21.3633C20.0076 22.3576 20.9133 22.6755 21.2373 22.8105C21.4782 22.9104 21.7665 22.8871 21.9424 22.6992C22.1653 22.4583 22.4418 22.058 22.7236 21.6641C22.9226 21.382 23.1764 21.3463 23.4414 21.4463C23.623 21.5096 25.8953 22.5654 25.9912 22.7344C26.0619 22.8584 26.062 23.4398 25.8213 24.1211C25.5803 24.8032 24.6224 25.3681 23.8584 25.5332C23.3354 25.6442 22.6531 25.7314 20.3555 24.7793C17.7745 23.71 14.1904 19.901 14.1904 17.3662C14.1904 16.0758 14.9344 14.5732 16.2354 14.5732Z" fill="black"/>
</svg>
