<svg width="40" height="40" viewBox="0 0 40 40" fill="none" xmlns="http://www.w3.org/2000/svg">
<path d="M21.25 0C27.0739 0 29.9861 -0.000164944 32.2832 0.951172C35.3461 2.21985 37.7802 4.65395 39.0488 7.7168C40.0002 10.0139 40 12.9261 40 18.75V21.25C40 27.0739 40.0002 29.9861 39.0488 32.2832C37.7802 35.3461 35.3461 37.7802 32.2832 39.0488C29.9861 40.0002 27.0739 40 21.25 40H18.75C12.9261 40 10.0139 40.0002 7.7168 39.0488C4.65395 37.7802 2.21985 35.3461 0.951172 32.2832C-0.000164944 29.9861 0 27.0739 0 21.25V18.75C0 12.9261 -0.000164944 10.0139 0.951172 7.7168C2.21985 4.65395 4.65395 2.21985 7.7168 0.951172C10.0139 -0.000164944 12.9261 0 18.75 0H21.25ZM19.9219 11C16.5547 11 13.3909 11.2747 11.7061 11.6592C10.5835 11.9342 9.61255 12.76 9.40918 14.0254C9.20384 15.4003 9.00001 17.3251 9 19.7998C9 22.2748 9.20377 24.2002 9.45898 25.5752C9.66444 26.7846 10.6334 27.6654 11.7559 27.9404C13.5423 28.3249 16.6045 28.5996 19.9736 28.5996C23.343 28.5996 26.4059 28.325 28.1924 27.9404C29.3148 27.6654 30.2838 26.8405 30.4893 25.5752C30.6926 24.2002 30.9482 22.2189 31 19.7998C30.8963 17.3251 30.6409 15.4003 30.3857 14.0254C30.1824 12.8158 29.2134 11.9342 28.0889 11.6592C26.406 11.2746 23.2913 11 19.9219 11ZM23.3936 19.7998L17.167 23.6504V15.9502L23.3936 19.7998Z" fill="black"/>
</svg>
